<svg xmlns="http://www.w3.org/2000/svg" viewBox="0 0 32 32" fill="none">
  <rect width="32" height="32" rx="6" fill="#0B0F14"/>
  <rect x="1" y="1" width="30" height="30" rx="5" stroke="#22C55E" stroke-width="1"/>
  
  <!-- Git branch icon -->
  <path d="M8 6a2 2 0 100 4 2 2 0 000-4zM6 8a4 4 0 118 0 4 4 0 01-8 0z" fill="#22C55E"/>
  <path d="M24 20a2 2 0 100 4 2 2 0 000-4zm-2 2a4 4 0 118 0 4 4 0 01-8 0z" fill="#22C55E"/>
  <path d="M8 14a2 2 0 100 4 2 2 0 000-4zm-2 2a4 4 0 118 0 4 4 0 01-8 0z" fill="#22C55E"/>
  
  <!-- Connection lines -->
  <path d="M10 10v2M10 18v2M22 20h-12" stroke="#22C55E" stroke-width="1.5" stroke-linecap="round"/>
  
  <!-- "oops" indicator -->
  <circle cx="20" cy="12" r="3" fill="#EF4444"/>
  <path d="M19 11h2M19 13h2" stroke="#FFFFFF" stroke-width="1" stroke-linecap="round"/>
</svg>
